<svg width="28" height="14" viewBox="0 0 28 14" fill="none" xmlns="http://www.w3.org/2000/svg">
<rect width="28" height="14" rx="7" fill="white"/>
<path d="M7.90768 9.4085C8.09668 9.4085 8.25768 9.38633 8.39068 9.342C8.52601 9.29767 8.63568 9.237 8.71968 9.16C8.80601 9.083 8.86901 8.992 8.90868 8.887C8.94834 8.77967 8.96818 8.663 8.96818 8.537C8.96818 8.28733 8.88184 8.09133 8.70918 7.949C8.53651 7.80433 8.26934 7.732 7.90768 7.732H6.85768V9.4085H7.90768ZM6.85768 5.5585V7.2035H7.71518C8.08151 7.2035 8.35334 7.13 8.53068 6.983C8.71034 6.83367 8.80018 6.633 8.80018 6.381C8.80018 6.094 8.71501 5.88517 8.54468 5.7545C8.37434 5.62383 8.10951 5.5585 7.75018 5.5585H6.85768ZM7.75018 4.974C8.06518 4.974 8.33468 5.00433 8.55868 5.065C8.78501 5.12567 8.97051 5.21317 9.11518 5.3275C9.25984 5.44183 9.36601 5.58067 9.43368 5.744C9.50368 5.905 9.53868 6.08817 9.53868 6.2935C9.53868 6.41483 9.52001 6.5315 9.48268 6.6435C9.44534 6.7555 9.38818 6.8605 9.31118 6.9585C9.23418 7.05417 9.13734 7.1405 9.02068 7.2175C8.90401 7.2945 8.76634 7.35867 8.60768 7.41C9.33801 7.55467 9.70318 7.93617 9.70318 8.5545C9.70318 8.76917 9.66351 8.96517 9.58418 9.1425C9.50484 9.3175 9.38934 9.46917 9.23768 9.5975C9.08601 9.72583 8.89934 9.825 8.67768 9.895C8.45601 9.965 8.20401 10 7.92168 10H6.11218V4.974H7.75018ZM13.7766 9.3945L13.7731 10H10.6581V4.974H13.7731V5.5795H11.4071V7.172H13.3111V7.7565H11.4071V9.3945H13.7766ZM18.1246 5.597H16.5286V10H15.7866V5.597H14.1836V4.974H18.1246V5.597ZM21.0258 8.1275L20.2803 6.178C20.2267 6.045 20.173 5.877 20.1193 5.674C20.0937 5.77433 20.0668 5.86767 20.0388 5.954C20.0132 6.04033 19.9875 6.11733 19.9618 6.185L19.2198 8.1275H21.0258ZM22.4993 10H21.9253C21.86 10 21.8063 9.98367 21.7643 9.951C21.7223 9.91833 21.692 9.87633 21.6733 9.825L21.2288 8.6595H19.0133L18.5688 9.825C18.5525 9.86933 18.5222 9.91017 18.4778 9.9475C18.4335 9.9825 18.3798 10 18.3168 10H17.7428L19.7448 4.974H20.4973L22.4993 10Z" fill="black"/>
</svg>
