<svg width="22" height="22" viewBox="0 0 22 22" fill="none" xmlns="http://www.w3.org/2000/svg">
<path d="M7.33594 12.3753H14.6693M7.33594 7.79199H11.0026" stroke="white" stroke-width="1.375" stroke-linecap="round" stroke-linejoin="round"/>
<path d="M5.59318 17.417C4.40141 17.2997 3.50863 16.9418 2.90988 16.343C1.83594 15.2691 1.83594 13.5406 1.83594 10.0837V9.62533C1.83594 6.16836 1.83594 4.43988 2.90988 3.36593C3.98383 2.29199 5.7123 2.29199 9.16927 2.29199H12.8359C16.2929 2.29199 18.0214 2.29199 19.0953 3.36593C20.1693 4.43988 20.1693 6.16836 20.1693 9.62533V10.0837C20.1693 13.5406 20.1693 15.2691 19.0953 16.343C18.0214 17.417 16.2929 17.417 12.8359 17.417C12.3221 17.4284 11.9129 17.4675 11.511 17.5591C10.4125 17.812 9.39523 18.3741 8.38999 18.8643C6.95762 19.5627 6.24144 19.912 5.79199 19.585C4.93215 18.9446 5.7726 16.9604 5.96094 16.042" stroke="white" stroke-width="1.375" stroke-linecap="round"/>
</svg>
