<svg width="20" height="20" viewBox="0 0 20 20" fill="none" xmlns="http://www.w3.org/2000/svg">
<rect x="0.5" y="0.5" width="19" height="19" rx="9.5" fill="#E3418B"/>
<rect x="0.5" y="0.5" width="19" height="19" rx="9.5" stroke="black"/>
<path d="M5.67079 9.08403C5.47268 8.53571 5.37363 8.26156 5.41587 8.08588C5.46206 7.89373 5.59871 7.74393 5.77338 7.69396C5.93307 7.64827 6.18149 7.75868 6.67833 7.9795C7.11778 8.17482 7.33751 8.27248 7.54396 8.26705C7.77127 8.26106 7.98993 8.16991 8.16387 8.00862C8.32185 7.86213 8.42782 7.6287 8.63974 7.16184L9.1068 6.13294C9.49694 5.27348 9.69201 4.84375 10.0009 4.84375C10.3098 4.84375 10.5049 5.27348 10.8951 6.13294L11.3621 7.16184C11.574 7.6287 11.68 7.86213 11.838 8.00862C12.0119 8.16991 12.2306 8.26106 12.4579 8.26705C12.6644 8.27248 12.8841 8.17482 13.3235 7.9795C13.8204 7.75868 14.0688 7.64827 14.2285 7.69396C14.4031 7.74393 14.5398 7.89373 14.586 8.08588C14.6282 8.26156 14.5292 8.53571 14.3311 9.08397L13.4795 11.4408C13.1152 12.449 12.9331 12.9531 12.5519 13.2378C12.1707 13.5226 11.6782 13.5226 10.6931 13.5226H9.30876C8.32366 13.5226 7.8311 13.5226 7.44994 13.2378C7.06878 12.9531 6.88664 12.449 6.52236 11.4408L5.67079 9.08403Z" stroke="#010101" stroke-width="0.76578"/>
<path d="M7.44922 15.1562H12.5544" stroke="#010101" stroke-width="0.76578" stroke-linecap="round"/>
<path d="M10.002 10.9956H10.0065" stroke="#010101" stroke-width="1.02104" stroke-linecap="round" stroke-linejoin="round"/>
</svg>
