<svg width="20" height="20" viewBox="0 0 20 20" fill="none" xmlns="http://www.w3.org/2000/svg">
<rect width="20" height="20" rx="10" fill="#E3418B"/>
<path d="M4.69887 8.87863C4.45633 8.20735 4.33506 7.87172 4.38677 7.65666C4.44333 7.42142 4.61062 7.23803 4.82445 7.17685C5.01995 7.12091 5.32408 7.25608 5.93233 7.52642C6.47033 7.76554 6.73933 7.88509 6.99207 7.87844C7.27035 7.87112 7.53805 7.75953 7.751 7.56207C7.9444 7.38273 8.07413 7.09696 8.33358 6.5254L8.90537 5.26578C9.383 4.21359 9.62181 3.6875 10 3.6875C10.3782 3.6875 10.617 4.21359 11.0946 5.26578L11.6664 6.5254C11.9259 7.09696 12.0556 7.38273 12.249 7.56207C12.4619 7.75953 12.7296 7.87112 13.0079 7.87844C13.2607 7.88509 13.5297 7.76554 14.0677 7.52642C14.6759 7.25608 14.9801 7.12091 15.1756 7.17685C15.3894 7.23803 15.5567 7.42142 15.6132 7.65666C15.6649 7.87172 15.5437 8.20735 15.3011 8.87856L14.2586 11.7639C13.8126 12.9981 13.5897 13.6152 13.123 13.9639C12.6564 14.3125 12.0534 14.3125 10.8474 14.3125H9.15262C7.94662 14.3125 7.3436 14.3125 6.87697 13.9639C6.41034 13.6152 6.18735 12.9981 5.74139 11.7639L4.69887 8.87863Z" stroke="#141B34" stroke-width="0.9375"/>
<path d="M6.875 16.3125H13.125" stroke="#141B34" stroke-width="0.9375" stroke-linecap="round"/>
<path d="M10 11.2188H10.0056" stroke="#141B34" stroke-width="1.25" stroke-linecap="round" stroke-linejoin="round"/>
</svg>
