<svg width="352" height="352" viewBox="0 0 352 352" fill="none" xmlns="http://www.w3.org/2000/svg">
<g clip-path="url(#clip0_133_293)">
<rect x="1" y="1" width="350" height="350" rx="15" fill="#070707"/>
<rect x="176" y="2.35355" width="245.927" height="245.927" transform="rotate(45 176 2.35355)" stroke="#CDCDCD" stroke-width="0.5"/>
<line x1="0.823223" y1="349.823" x2="345.823" y2="4.82322" stroke="#E3418B" stroke-width="0.5"/>
<line x1="5.17678" y1="5.82322" x2="349.177" y2="349.823" stroke="#E3418B" stroke-width="0.5"/>
<path d="M264.11 325.255V326H260.23V325.255H261.75V320.55C261.75 320.4 261.755 320.245 261.765 320.085L260.545 321.12C260.498 321.157 260.452 321.18 260.405 321.19C260.358 321.2 260.313 321.202 260.27 321.195C260.23 321.188 260.193 321.175 260.16 321.155C260.13 321.132 260.105 321.108 260.085 321.085L259.78 320.66L261.93 318.805H262.725V325.255H264.11Z" fill="#E3418B"/>
<path d="M308.93 262.075C309.037 262.075 309.12 262.107 309.18 262.17C309.24 262.23 309.27 262.31 309.27 262.41V263H304.45V262.665C304.45 262.598 304.463 262.528 304.49 262.455C304.517 262.378 304.562 262.31 304.625 262.25L306.895 259.975C307.085 259.785 307.257 259.602 307.41 259.425C307.563 259.248 307.693 259.073 307.8 258.9C307.907 258.723 307.988 258.543 308.045 258.36C308.105 258.177 308.135 257.983 308.135 257.78C308.135 257.58 308.103 257.405 308.04 257.255C307.977 257.102 307.89 256.975 307.78 256.875C307.67 256.775 307.54 256.7 307.39 256.65C307.24 256.6 307.078 256.575 306.905 256.575C306.732 256.575 306.572 256.6 306.425 256.65C306.282 256.7 306.153 256.77 306.04 256.86C305.927 256.95 305.832 257.057 305.755 257.18C305.678 257.303 305.623 257.437 305.59 257.58C305.543 257.707 305.483 257.792 305.41 257.835C305.34 257.878 305.237 257.888 305.1 257.865L304.59 257.775C304.637 257.442 304.728 257.148 304.865 256.895C305.002 256.642 305.173 256.43 305.38 256.26C305.587 256.087 305.823 255.957 306.09 255.87C306.36 255.783 306.65 255.74 306.96 255.74C307.273 255.74 307.562 255.787 307.825 255.88C308.092 255.97 308.322 256.102 308.515 256.275C308.708 256.448 308.86 256.66 308.97 256.91C309.08 257.157 309.135 257.437 309.135 257.75C309.135 258.017 309.095 258.265 309.015 258.495C308.938 258.722 308.832 258.938 308.695 259.145C308.562 259.352 308.405 259.553 308.225 259.75C308.048 259.943 307.86 260.14 307.66 260.34L305.84 262.2C305.98 262.163 306.12 262.133 306.26 262.11C306.403 262.087 306.538 262.075 306.665 262.075H308.93Z" fill="#E3418B"/>
<path d="M259.62 229.775C259.67 229.442 259.763 229.148 259.9 228.895C260.037 228.642 260.208 228.43 260.415 228.26C260.622 228.087 260.858 227.957 261.125 227.87C261.395 227.783 261.685 227.74 261.995 227.74C262.305 227.74 262.59 227.785 262.85 227.875C263.11 227.962 263.332 228.087 263.515 228.25C263.702 228.41 263.847 228.603 263.95 228.83C264.053 229.057 264.105 229.307 264.105 229.58C264.105 229.81 264.077 230.013 264.02 230.19C263.963 230.367 263.882 230.522 263.775 230.655C263.672 230.788 263.545 230.902 263.395 230.995C263.245 231.085 263.077 231.16 262.89 231.22C263.347 231.347 263.69 231.553 263.92 231.84C264.15 232.123 264.265 232.483 264.265 232.92C264.265 233.257 264.202 233.56 264.075 233.83C263.948 234.097 263.775 234.323 263.555 234.51C263.335 234.693 263.078 234.835 262.785 234.935C262.495 235.032 262.185 235.08 261.855 235.08C261.478 235.08 261.155 235.035 260.885 234.945C260.615 234.852 260.385 234.723 260.195 234.56C260.005 234.393 259.847 234.195 259.72 233.965C259.597 233.732 259.492 233.477 259.405 233.2L259.83 233.02C259.94 232.973 260.047 232.96 260.15 232.98C260.253 233 260.328 233.058 260.375 233.155C260.425 233.255 260.482 233.368 260.545 233.495C260.612 233.618 260.7 233.737 260.81 233.85C260.92 233.96 261.057 234.053 261.22 234.13C261.387 234.207 261.595 234.245 261.845 234.245C262.085 234.245 262.295 234.207 262.475 234.13C262.655 234.05 262.805 233.948 262.925 233.825C263.045 233.698 263.135 233.558 263.195 233.405C263.255 233.252 263.285 233.1 263.285 232.95C263.285 232.763 263.262 232.592 263.215 232.435C263.168 232.278 263.078 232.145 262.945 232.035C262.815 231.922 262.633 231.833 262.4 231.77C262.167 231.707 261.863 231.675 261.49 231.675V230.965C261.797 230.962 262.055 230.93 262.265 230.87C262.478 230.81 262.65 230.727 262.78 230.62C262.91 230.513 263.003 230.387 263.06 230.24C263.12 230.093 263.15 229.93 263.15 229.75C263.15 229.553 263.12 229.382 263.06 229.235C263 229.088 262.915 228.967 262.805 228.87C262.698 228.77 262.57 228.697 262.42 228.65C262.273 228.6 262.113 228.575 261.94 228.575C261.767 228.575 261.607 228.6 261.46 228.65C261.313 228.7 261.183 228.77 261.07 228.86C260.957 228.95 260.862 229.057 260.785 229.18C260.708 229.303 260.653 229.437 260.62 229.58C260.573 229.707 260.513 229.792 260.44 229.835C260.37 229.878 260.268 229.888 260.135 229.865L259.62 229.775Z" fill="#E3418B"/>
<path d="M301.63 77.38V74.58C301.63 74.4833 301.632 74.3817 301.635 74.275C301.642 74.165 301.653 74.0517 301.67 73.935L299.155 77.38H301.63ZM303.525 77.38V77.945C303.525 78.0017 303.507 78.05 303.47 78.09C303.433 78.13 303.382 78.15 303.315 78.15H302.485V80H301.63V78.15H298.48C298.407 78.15 298.345 78.13 298.295 78.09C298.245 78.0467 298.212 77.9933 298.195 77.93L298.095 77.43L301.565 72.815H302.485V77.38H303.525Z" fill="#E3418B"/>
<path d="M260.865 58.5C261.232 58.4233 261.563 58.385 261.86 58.385C262.233 58.385 262.563 58.4417 262.85 58.555C263.137 58.665 263.377 58.8183 263.57 59.015C263.767 59.2083 263.913 59.4383 264.01 59.705C264.11 59.9683 264.16 60.255 264.16 60.565C264.16 60.945 264.093 61.29 263.96 61.6C263.827 61.91 263.643 62.175 263.41 62.395C263.177 62.615 262.9 62.785 262.58 62.905C262.263 63.0217 261.922 63.08 261.555 63.08C261.338 63.08 261.132 63.0583 260.935 63.015C260.742 62.9717 260.56 62.915 260.39 62.845C260.22 62.7717 260.062 62.6883 259.915 62.595C259.772 62.5017 259.643 62.4033 259.53 62.3L259.83 61.88C259.893 61.7867 259.978 61.74 260.085 61.74C260.155 61.74 260.232 61.7667 260.315 61.82C260.402 61.87 260.503 61.9267 260.62 61.99C260.737 62.0533 260.875 62.1117 261.035 62.165C261.195 62.215 261.385 62.24 261.605 62.24C261.848 62.24 262.067 62.2017 262.26 62.125C262.457 62.045 262.622 61.9333 262.755 61.79C262.892 61.6467 262.995 61.475 263.065 61.275C263.138 61.075 263.175 60.8533 263.175 60.61C263.175 60.3933 263.143 60.1983 263.08 60.025C263.017 59.8517 262.922 59.7033 262.795 59.58C262.668 59.4567 262.51 59.3633 262.32 59.3C262.13 59.2333 261.908 59.2 261.655 59.2C261.302 59.2 260.925 59.2633 260.525 59.39L259.91 59.21L260.495 55.82H263.935V56.245C263.935 56.385 263.89 56.5 263.8 56.59C263.713 56.6767 263.567 56.72 263.36 56.72H261.175L260.865 58.5Z" fill="#E3418B"/>
<path d="M175.89 153.265C176.12 153.265 176.328 153.228 176.515 153.155C176.702 153.078 176.862 152.975 176.995 152.845C177.128 152.715 177.232 152.56 177.305 152.38C177.378 152.2 177.415 152.005 177.415 151.795C177.415 151.565 177.378 151.36 177.305 151.18C177.235 150.997 177.135 150.842 177.005 150.715C176.878 150.588 176.725 150.492 176.545 150.425C176.365 150.358 176.165 150.325 175.945 150.325C175.715 150.325 175.508 150.365 175.325 150.445C175.142 150.522 174.985 150.627 174.855 150.76C174.725 150.89 174.625 151.043 174.555 151.22C174.485 151.397 174.45 151.582 174.45 151.775C174.45 151.995 174.482 152.197 174.545 152.38C174.608 152.563 174.702 152.72 174.825 152.85C174.948 152.98 175.098 153.082 175.275 153.155C175.455 153.228 175.66 153.265 175.89 153.265ZM175.43 149.49C175.373 149.563 175.317 149.635 175.26 149.705C175.207 149.772 175.155 149.838 175.105 149.905C175.265 149.802 175.442 149.722 175.635 149.665C175.832 149.608 176.043 149.58 176.27 149.58C176.553 149.58 176.823 149.627 177.08 149.72C177.337 149.813 177.562 149.95 177.755 150.13C177.952 150.31 178.107 150.533 178.22 150.8C178.333 151.067 178.39 151.373 178.39 151.72C178.39 152.05 178.33 152.36 178.21 152.65C178.09 152.937 177.92 153.187 177.7 153.4C177.483 153.61 177.223 153.777 176.92 153.9C176.617 154.02 176.28 154.08 175.91 154.08C175.543 154.08 175.212 154.022 174.915 153.905C174.622 153.788 174.37 153.623 174.16 153.41C173.953 153.193 173.793 152.933 173.68 152.63C173.567 152.323 173.51 151.983 173.51 151.61C173.51 151.29 173.578 150.953 173.715 150.6C173.855 150.243 174.075 149.863 174.375 149.46L176.17 147.055C176.22 146.988 176.29 146.933 176.38 146.89C176.47 146.843 176.573 146.82 176.69 146.82H177.56L175.43 149.49Z" fill="#E3418B"/>
<path d="M87.42 62.82V63.255C87.42 63.3817 87.405 63.485 87.375 63.565C87.3483 63.6417 87.3217 63.7083 87.295 63.765L84.385 69.655C84.3383 69.7517 84.2733 69.8333 84.19 69.9C84.1067 69.9667 83.995 70 83.855 70H83.155L86.11 64.195C86.16 64.1017 86.21 64.0167 86.26 63.94C86.31 63.86 86.365 63.7867 86.425 63.72H82.755C82.6917 63.72 82.6367 63.6967 82.59 63.65C82.5433 63.6033 82.52 63.5483 82.52 63.485V62.82H87.42Z" fill="#E3418B"/>
<path d="M50.9 89.305C51.1267 89.305 51.3283 89.2733 51.505 89.21C51.6817 89.1467 51.8317 89.0583 51.955 88.945C52.0783 88.8283 52.1717 88.69 52.235 88.53C52.2983 88.37 52.33 88.195 52.33 88.005C52.33 87.7717 52.2917 87.5717 52.215 87.405C52.1383 87.235 52.035 87.0967 51.905 86.99C51.775 86.88 51.6233 86.8 51.45 86.75C51.2767 86.6967 51.0933 86.67 50.9 86.67C50.7033 86.67 50.5183 86.6967 50.345 86.75C50.1717 86.8 50.02 86.88 49.89 86.99C49.76 87.0967 49.6567 87.235 49.58 87.405C49.5067 87.5717 49.47 87.7717 49.47 88.005C49.47 88.195 49.5017 88.37 49.565 88.53C49.6283 88.69 49.7217 88.8283 49.845 88.945C49.9683 89.0583 50.1183 89.1467 50.295 89.21C50.4717 89.2733 50.6733 89.305 50.9 89.305ZM50.9 83.49C50.6933 83.49 50.5117 83.5217 50.355 83.585C50.2017 83.645 50.0733 83.7283 49.97 83.835C49.8667 83.9417 49.7883 84.065 49.735 84.205C49.685 84.345 49.66 84.495 49.66 84.655C49.66 84.8117 49.6817 84.965 49.725 85.115C49.7717 85.2617 49.8433 85.3933 49.94 85.51C50.04 85.6233 50.1683 85.715 50.325 85.785C50.4817 85.855 50.6733 85.89 50.9 85.89C51.1233 85.89 51.3133 85.855 51.47 85.785C51.63 85.715 51.7583 85.6233 51.855 85.51C51.955 85.3933 52.0267 85.2617 52.07 85.115C52.1167 84.965 52.14 84.8117 52.14 84.655C52.14 84.495 52.1133 84.345 52.06 84.205C52.01 84.065 51.9333 83.9417 51.83 83.835C51.7267 83.7283 51.5967 83.645 51.44 83.585C51.2867 83.5217 51.1067 83.49 50.9 83.49ZM51.975 86.255C52.4217 86.3883 52.76 86.6033 52.99 86.9C53.2233 87.1967 53.34 87.5717 53.34 88.025C53.34 88.3383 53.28 88.6217 53.16 88.875C53.0433 89.1283 52.8767 89.345 52.66 89.525C52.4467 89.7017 52.19 89.8383 51.89 89.935C51.59 90.0317 51.26 90.08 50.9 90.08C50.54 90.08 50.21 90.0317 49.91 89.935C49.61 89.8383 49.3517 89.7017 49.135 89.525C48.9217 89.345 48.755 89.1283 48.635 88.875C48.5183 88.6217 48.46 88.3383 48.46 88.025C48.46 87.5717 48.575 87.1967 48.805 86.9C49.0383 86.6033 49.3783 86.3883 49.825 86.255C49.455 86.115 49.1767 85.9067 48.99 85.63C48.8033 85.35 48.71 85.0183 48.71 84.635C48.71 84.3683 48.7617 84.12 48.865 83.89C48.9717 83.6567 49.12 83.455 49.31 83.285C49.5033 83.115 49.735 82.9817 50.005 82.885C50.275 82.7883 50.5733 82.74 50.9 82.74C51.2267 82.74 51.525 82.7883 51.795 82.885C52.065 82.9817 52.295 83.115 52.485 83.285C52.6783 83.455 52.8267 83.6567 52.93 83.89C53.0367 84.12 53.09 84.3683 53.09 84.635C53.09 85.0183 52.9967 85.35 52.81 85.63C52.6233 85.9067 52.345 86.115 51.975 86.255Z" fill="#E3418B"/>
<path d="M86.475 229.94C86.475 230.383 86.595 230.725 86.835 230.965C87.075 231.205 87.4083 231.325 87.835 231.325C88.065 231.325 88.2683 231.288 88.445 231.215C88.6217 231.138 88.77 231.038 88.89 230.915C89.0133 230.788 89.1067 230.643 89.17 230.48C89.2333 230.313 89.265 230.14 89.265 229.96C89.265 229.743 89.23 229.548 89.16 229.375C89.0933 229.198 88.9983 229.05 88.875 228.93C88.7517 228.807 88.605 228.713 88.435 228.65C88.2683 228.583 88.0833 228.55 87.88 228.55C87.67 228.55 87.4783 228.585 87.305 228.655C87.1317 228.722 86.9833 228.817 86.86 228.94C86.7367 229.063 86.6417 229.21 86.575 229.38C86.5083 229.55 86.475 229.737 86.475 229.94ZM88.445 232.16C88.575 231.99 88.6967 231.823 88.81 231.66C88.63 231.797 88.4283 231.9 88.205 231.97C87.985 232.04 87.75 232.075 87.5 232.075C87.2367 232.075 86.9833 232.03 86.74 231.94C86.5 231.85 86.2867 231.718 86.1 231.545C85.9167 231.368 85.77 231.152 85.66 230.895C85.55 230.638 85.495 230.343 85.495 230.01C85.495 229.697 85.5533 229.402 85.67 229.125C85.7867 228.848 85.95 228.608 86.16 228.405C86.3733 228.198 86.6267 228.037 86.92 227.92C87.2167 227.8 87.5417 227.74 87.895 227.74C88.245 227.74 88.5617 227.797 88.845 227.91C89.1317 228.023 89.375 228.183 89.575 228.39C89.775 228.593 89.93 228.838 90.04 229.125C90.15 229.412 90.205 229.727 90.205 230.07C90.205 230.28 90.185 230.48 90.145 230.67C90.1083 230.86 90.0533 231.045 89.98 231.225C89.91 231.405 89.8233 231.583 89.72 231.76C89.62 231.933 89.505 232.112 89.375 232.295L87.65 234.77C87.6033 234.837 87.535 234.892 87.445 234.935C87.3583 234.978 87.2583 235 87.145 235H86.25L88.445 232.16Z" fill="#E3418B"/>
<path d="M53.11 262.255V263H49.23V262.255H50.75V257.55C50.75 257.4 50.755 257.245 50.765 257.085L49.545 258.12C49.4983 258.157 49.4517 258.18 49.405 258.19C49.3583 258.2 49.3133 258.202 49.27 258.195C49.23 258.188 49.1933 258.175 49.16 258.155C49.13 258.132 49.105 258.108 49.085 258.085L48.78 257.66L50.93 255.805H51.725V262.255H53.11ZM59.3108 259.41C59.3108 260.037 59.2424 260.58 59.1058 261.04C58.9724 261.5 58.7874 261.882 58.5508 262.185C58.3174 262.485 58.0408 262.708 57.7208 262.855C57.4041 263.002 57.0624 263.075 56.6958 263.075C56.3291 263.075 55.9858 263.002 55.6658 262.855C55.3491 262.708 55.0741 262.485 54.8408 262.185C54.6074 261.882 54.4241 261.5 54.2908 261.04C54.1574 260.58 54.0908 260.037 54.0908 259.41C54.0908 258.783 54.1574 258.24 54.2908 257.78C54.4241 257.317 54.6074 256.935 54.8408 256.635C55.0741 256.332 55.3491 256.107 55.6658 255.96C55.9858 255.813 56.3291 255.74 56.6958 255.74C57.0624 255.74 57.4041 255.813 57.7208 255.96C58.0408 256.107 58.3174 256.332 58.5508 256.635C58.7874 256.935 58.9724 257.317 59.1058 257.78C59.2424 258.24 59.3108 258.783 59.3108 259.41ZM58.3008 259.41C58.3008 258.87 58.2558 258.418 58.1658 258.055C58.0791 257.692 57.9608 257.4 57.8108 257.18C57.6641 256.957 57.4941 256.798 57.3008 256.705C57.1074 256.612 56.9058 256.565 56.6958 256.565C56.4858 256.565 56.2841 256.612 56.0908 256.705C55.8974 256.798 55.7258 256.957 55.5758 257.18C55.4291 257.4 55.3124 257.692 55.2258 258.055C55.1391 258.418 55.0958 258.87 55.0958 259.41C55.0958 259.95 55.1391 260.402 55.2258 260.765C55.3124 261.128 55.4291 261.42 55.5758 261.64C55.7258 261.86 55.8974 262.017 56.0908 262.11C56.2841 262.203 56.4858 262.25 56.6958 262.25C56.9058 262.25 57.1074 262.203 57.3008 262.11C57.4941 262.017 57.6641 261.86 57.8108 261.64C57.9608 261.42 58.0791 261.128 58.1658 260.765C58.2558 260.402 58.3008 259.95 58.3008 259.41Z" fill="#E3418B"/>
<path d="M23.925 263.05L23.925 262.7C23.925 262.573 23.91 262.472 23.88 262.395C23.8467 262.315 23.7917 262.243 23.715 262.18L21.06 259.895C20.97 259.822 20.9083 259.747 20.875 259.67C20.8383 259.593 20.82 259.498 20.82 259.385L20.82 258.475L23.88 261.135C23.9667 261.202 24.0367 261.268 24.09 261.335C24.1433 261.398 24.1883 261.465 24.225 261.535C24.2883 261.352 24.4167 261.192 24.61 261.055L28 258.29L28 259.215C28 259.282 27.995 259.34 27.985 259.39C27.975 259.437 27.9617 259.478 27.945 259.515C27.925 259.548 27.9017 259.58 27.875 259.61C27.8483 259.637 27.8167 259.662 27.78 259.685L24.98 262.05C24.9367 262.083 24.9 262.117 24.87 262.15C24.84 262.183 24.8167 262.222 24.8 262.265C24.78 262.308 24.7667 262.358 24.76 262.415C24.75 262.472 24.745 262.538 24.745 262.615L24.745 263.05L28 263.05L28 264.115L20.82 264.115L20.82 263.05L23.925 263.05ZM24.895 254.641C24.7017 254.641 24.5233 254.67 24.36 254.726C24.1967 254.78 24.055 254.86 23.935 254.966C23.815 255.073 23.7217 255.203 23.655 255.356C23.5883 255.51 23.555 255.686 23.555 255.886C23.555 256.296 23.6733 256.62 23.91 256.856C24.1467 257.09 24.475 257.238 24.895 257.301L24.895 254.641ZM27.275 253.836C27.415 253.956 27.5367 254.095 27.64 254.251C27.74 254.408 27.8217 254.575 27.885 254.751C27.9483 254.928 27.995 255.111 28.025 255.301C28.055 255.488 28.07 255.673 28.07 255.856C28.07 256.206 28.0117 256.531 27.895 256.831C27.775 257.128 27.6017 257.386 27.375 257.606C27.145 257.823 26.8617 257.993 26.525 258.116C26.185 258.236 25.795 258.296 25.355 258.296C25.0017 258.296 24.6733 258.241 24.37 258.131C24.0633 258.021 23.7967 257.865 23.57 257.661C23.3433 257.455 23.165 257.203 23.035 256.906C22.905 256.61 22.84 256.276 22.84 255.906C22.84 255.596 22.8917 255.311 22.995 255.051C23.095 254.788 23.2417 254.561 23.435 254.371C23.6283 254.181 23.8667 254.033 24.15 253.926C24.4333 253.816 24.7567 253.761 25.12 253.761C25.27 253.761 25.3717 253.778 25.425 253.811C25.475 253.845 25.5 253.906 25.5 253.996L25.5 257.326C25.8033 257.316 26.0683 257.273 26.295 257.196C26.5183 257.12 26.705 257.015 26.855 256.881C27.005 256.745 27.1167 256.583 27.19 256.396C27.2633 256.21 27.3 256.001 27.3 255.771C27.3 255.555 27.275 255.368 27.225 255.211C27.175 255.051 27.1217 254.915 27.065 254.801C27.005 254.685 26.95 254.588 26.9 254.511C26.85 254.431 26.825 254.361 26.825 254.301C26.825 254.221 26.855 254.16 26.915 254.116L27.275 253.836Z" fill="#7F7F7F"/>
<path d="M20.82 84.565L28 84.565L28 85.495L22.89 85.495C22.8133 85.495 22.7317 85.4933 22.645 85.49C22.5583 85.4833 22.47 85.4767 22.38 85.47L26.765 87.86C26.9283 87.9433 27.01 88.0717 27.01 88.245L27.01 88.395C27.01 88.5683 26.9283 88.695 26.765 88.775L22.365 91.21C22.5517 91.19 22.7267 91.18 22.89 91.18L28 91.18L28 92.115L20.82 92.115L20.82 91.325C20.82 91.2317 20.83 91.16 20.85 91.11C20.8667 91.0567 20.9167 91.0067 21 90.96L25.3 88.56C25.3867 88.5133 25.4783 88.47 25.575 88.43C25.6717 88.39 25.7683 88.3517 25.865 88.315C25.6683 88.245 25.4783 88.1633 25.295 88.07L21 85.715C20.9167 85.6717 20.8667 85.625 20.85 85.575C20.83 85.5217 20.82 85.4483 20.82 85.355L20.82 84.565ZM22.84 80.9801C22.84 80.6067 22.9017 80.2701 23.025 79.9701C23.145 79.6667 23.32 79.4101 23.55 79.2001C23.7767 78.9867 24.0517 78.8234 24.375 78.7101C24.695 78.5967 25.055 78.5401 25.455 78.5401C25.855 78.5401 26.2167 78.5967 26.54 78.7101C26.8633 78.8234 27.1383 78.9867 27.365 79.2001C27.5917 79.4101 27.7667 79.6667 27.89 79.9701C28.01 80.2701 28.07 80.6067 28.07 80.9801C28.07 81.3567 28.01 81.6967 27.89 82.0001C27.7667 82.3001 27.5917 82.5567 27.365 82.7701C27.1383 82.9834 26.8633 83.1484 26.54 83.2651C26.2167 83.3784 25.855 83.4351 25.455 83.4351C25.055 83.4351 24.695 83.3784 24.375 83.2651C24.0517 83.1484 23.7767 82.9834 23.55 82.7701C23.32 82.5567 23.145 82.3001 23.025 82.0001C22.9017 81.6967 22.84 81.3567 22.84 80.9801ZM27.31 80.9801C27.31 80.5001 27.1483 80.1417 26.825 79.9051C26.5017 79.6684 26.0467 79.5501 25.46 79.5501C24.8733 79.5501 24.4183 79.6684 24.095 79.9051C23.7683 80.1417 23.605 80.5001 23.605 80.9801C23.605 81.4667 23.7683 81.8301 24.095 82.0701C24.4183 82.3067 24.8733 82.4251 25.46 82.4251C26.0467 82.4251 26.5017 82.3067 26.825 82.0701C27.1483 81.8301 27.31 81.4667 27.31 80.9801Z" fill="#7F7F7F"/>
<path d="M236.6 204.99C236.567 205.047 236.532 205.088 236.495 205.115C236.458 205.142 236.412 205.155 236.355 205.155C236.295 205.155 236.227 205.128 236.15 205.075C236.073 205.018 235.977 204.957 235.86 204.89C235.747 204.82 235.61 204.758 235.45 204.705C235.29 204.648 235.098 204.62 234.875 204.62C234.665 204.62 234.48 204.648 234.32 204.705C234.163 204.758 234.032 204.833 233.925 204.93C233.818 205.023 233.737 205.135 233.68 205.265C233.627 205.392 233.6 205.53 233.6 205.68C233.6 205.873 233.648 206.033 233.745 206.16C233.845 206.287 233.975 206.395 234.135 206.485C234.295 206.575 234.477 206.653 234.68 206.72C234.883 206.787 235.092 206.857 235.305 206.93C235.518 207 235.727 207.082 235.93 207.175C236.133 207.268 236.315 207.387 236.475 207.53C236.635 207.67 236.763 207.843 236.86 208.05C236.96 208.253 237.01 208.503 237.01 208.8C237.01 209.117 236.955 209.413 236.845 209.69C236.738 209.967 236.582 210.208 236.375 210.415C236.168 210.622 235.913 210.785 235.61 210.905C235.31 211.022 234.968 211.08 234.585 211.08C234.355 211.08 234.132 211.057 233.915 211.01C233.698 210.967 233.493 210.905 233.3 210.825C233.107 210.742 232.925 210.643 232.755 210.53C232.588 210.413 232.438 210.283 232.305 210.14L232.61 209.63C232.64 209.59 232.675 209.557 232.715 209.53C232.758 209.503 232.807 209.49 232.86 209.49C232.93 209.49 233.01 209.527 233.1 209.6C233.193 209.673 233.307 209.755 233.44 209.845C233.577 209.932 233.738 210.012 233.925 210.085C234.115 210.158 234.345 210.195 234.615 210.195C234.835 210.195 235.032 210.167 235.205 210.11C235.378 210.05 235.523 209.967 235.64 209.86C235.76 209.75 235.852 209.618 235.915 209.465C235.978 209.312 236.01 209.142 236.01 208.955C236.01 208.745 235.962 208.573 235.865 208.44C235.768 208.307 235.64 208.195 235.48 208.105C235.32 208.015 235.138 207.938 234.935 207.875C234.732 207.812 234.523 207.747 234.31 207.68C234.097 207.61 233.888 207.53 233.685 207.44C233.482 207.35 233.3 207.233 233.14 207.09C232.98 206.943 232.852 206.762 232.755 206.545C232.658 206.325 232.61 206.055 232.61 205.735C232.61 205.478 232.66 205.23 232.76 204.99C232.86 204.75 233.005 204.538 233.195 204.355C233.388 204.168 233.625 204.02 233.905 203.91C234.185 203.797 234.505 203.74 234.865 203.74C235.268 203.74 235.638 203.805 235.975 203.935C236.315 204.062 236.61 204.245 236.86 204.485L236.6 204.99ZM242.252 205.92V211H241.667C241.533 211 241.447 210.935 241.407 210.805L241.337 210.295C241.227 210.412 241.112 210.518 240.992 210.615C240.872 210.712 240.743 210.795 240.607 210.865C240.47 210.932 240.325 210.983 240.172 211.02C240.018 211.06 239.853 211.08 239.677 211.08C239.397 211.08 239.15 211.033 238.937 210.94C238.727 210.847 238.55 210.717 238.407 210.55C238.263 210.38 238.155 210.177 238.082 209.94C238.008 209.703 237.972 209.442 237.972 209.155V205.92H238.952V209.155C238.952 209.518 239.035 209.802 239.202 210.005C239.368 210.205 239.623 210.305 239.967 210.305C240.217 210.305 240.45 210.247 240.667 210.13C240.883 210.01 241.087 209.847 241.277 209.64V205.92H242.252ZM253.892 203.82V211H252.962V205.89C252.962 205.813 252.964 205.732 252.967 205.645C252.974 205.558 252.98 205.47 252.987 205.38L250.597 209.765C250.514 209.928 250.385 210.01 250.212 210.01H250.062C249.889 210.01 249.762 209.928 249.682 209.765L247.247 205.365C247.267 205.552 247.277 205.727 247.277 205.89V211H246.342V203.82H247.132C247.225 203.82 247.297 203.83 247.347 203.85C247.4 203.867 247.45 203.917 247.497 204L249.897 208.3C249.944 208.387 249.987 208.478 250.027 208.575C250.067 208.672 250.105 208.768 250.142 208.865C250.212 208.668 250.294 208.478 250.387 208.295L252.742 204C252.785 203.917 252.832 203.867 252.882 203.85C252.935 203.83 253.009 203.82 253.102 203.82H253.892ZM258.052 208.745C257.655 208.758 257.318 208.79 257.042 208.84C256.765 208.887 256.54 208.95 256.367 209.03C256.193 209.11 256.068 209.205 255.992 209.315C255.915 209.422 255.877 209.542 255.877 209.675C255.877 209.802 255.897 209.912 255.937 210.005C255.98 210.095 256.037 210.17 256.107 210.23C256.18 210.287 256.265 210.328 256.362 210.355C256.458 210.382 256.563 210.395 256.677 210.395C256.827 210.395 256.963 210.38 257.087 210.35C257.213 210.32 257.332 210.278 257.442 210.225C257.552 210.168 257.657 210.1 257.757 210.02C257.857 209.94 257.955 209.848 258.052 209.745V208.745ZM255.192 206.63C255.475 206.36 255.782 206.158 256.112 206.025C256.445 205.892 256.81 205.825 257.207 205.825C257.497 205.825 257.753 205.873 257.977 205.97C258.2 206.063 258.388 206.195 258.542 206.365C258.695 206.535 258.81 206.738 258.887 206.975C258.967 207.212 259.007 207.473 259.007 207.76V211H258.572C258.475 211 258.402 210.985 258.352 210.955C258.302 210.922 258.262 210.862 258.232 210.775L258.127 210.33C257.997 210.45 257.868 210.557 257.742 210.65C257.615 210.74 257.482 210.818 257.342 210.885C257.205 210.948 257.058 210.997 256.902 211.03C256.745 211.063 256.572 211.08 256.382 211.08C256.182 211.08 255.993 211.053 255.817 211C255.643 210.943 255.492 210.858 255.362 210.745C255.232 210.632 255.128 210.49 255.052 210.32C254.978 210.15 254.942 209.952 254.942 209.725C254.942 209.525 254.995 209.333 255.102 209.15C255.212 208.963 255.388 208.797 255.632 208.65C255.878 208.503 256.198 208.383 256.592 208.29C256.988 208.197 257.475 208.143 258.052 208.13V207.76C258.052 207.377 257.97 207.09 257.807 206.9C257.643 206.71 257.403 206.615 257.087 206.615C256.873 206.615 256.693 206.642 256.547 206.695C256.403 206.748 256.278 206.808 256.172 206.875C256.068 206.938 255.977 206.997 255.897 207.05C255.82 207.103 255.74 207.13 255.657 207.13C255.59 207.13 255.532 207.112 255.482 207.075C255.435 207.038 255.397 206.995 255.367 206.945L255.192 206.63ZM270.591 203.82V211H269.661V205.89C269.661 205.813 269.663 205.732 269.666 205.645C269.673 205.558 269.68 205.47 269.686 205.38L267.296 209.765C267.213 209.928 267.085 210.01 266.911 210.01H266.761C266.588 210.01 266.461 209.928 266.381 209.765L263.946 205.365C263.966 205.552 263.976 205.727 263.976 205.89V211H263.041V203.82H263.831C263.925 203.82 263.996 203.83 264.046 203.85C264.1 203.867 264.15 203.917 264.196 204L266.596 208.3C266.643 208.387 266.686 208.478 266.726 208.575C266.766 208.672 266.805 208.768 266.841 208.865C266.911 208.668 266.993 208.478 267.086 208.295L269.441 204C269.485 203.917 269.531 203.867 269.581 203.85C269.635 203.83 269.708 203.82 269.801 203.82H270.591ZM275.376 207.895C275.376 207.702 275.348 207.523 275.291 207.36C275.238 207.197 275.158 207.055 275.051 206.935C274.945 206.815 274.815 206.722 274.661 206.655C274.508 206.588 274.331 206.555 274.131 206.555C273.721 206.555 273.398 206.673 273.161 206.91C272.928 207.147 272.78 207.475 272.716 207.895H275.376ZM276.181 210.275C276.061 210.415 275.923 210.537 275.766 210.64C275.61 210.74 275.443 210.822 275.266 210.885C275.09 210.948 274.906 210.995 274.716 211.025C274.53 211.055 274.345 211.07 274.161 211.07C273.811 211.07 273.486 211.012 273.186 210.895C272.89 210.775 272.631 210.602 272.411 210.375C272.195 210.145 272.025 209.862 271.901 209.525C271.781 209.185 271.721 208.795 271.721 208.355C271.721 208.002 271.776 207.673 271.886 207.37C271.996 207.063 272.153 206.797 272.356 206.57C272.563 206.343 272.815 206.165 273.111 206.035C273.408 205.905 273.741 205.84 274.111 205.84C274.421 205.84 274.706 205.892 274.966 205.995C275.23 206.095 275.456 206.242 275.646 206.435C275.836 206.628 275.985 206.867 276.091 207.15C276.201 207.433 276.256 207.757 276.256 208.12C276.256 208.27 276.24 208.372 276.206 208.425C276.173 208.475 276.111 208.5 276.021 208.5H272.691C272.701 208.803 272.745 209.068 272.821 209.295C272.898 209.518 273.003 209.705 273.136 209.855C273.273 210.005 273.435 210.117 273.621 210.19C273.808 210.263 274.016 210.3 274.246 210.3C274.463 210.3 274.65 210.275 274.806 210.225C274.966 210.175 275.103 210.122 275.216 210.065C275.333 210.005 275.43 209.95 275.506 209.9C275.586 209.85 275.656 209.825 275.716 209.825C275.796 209.825 275.858 209.855 275.901 209.915L276.181 210.275ZM285.592 203.82L282.672 211H281.717L278.797 203.82H279.647C279.74 203.82 279.815 203.843 279.872 203.89C279.932 203.937 279.977 203.997 280.007 204.07L281.947 208.95C281.994 209.07 282.039 209.202 282.082 209.345C282.129 209.488 282.17 209.638 282.207 209.795C282.24 209.638 282.277 209.488 282.317 209.345C282.357 209.202 282.4 209.07 282.447 208.95L284.382 204.07C284.405 204.003 284.447 203.945 284.507 203.895C284.57 203.845 284.647 203.82 284.737 203.82H285.592ZM288.892 207.895C288.892 207.702 288.863 207.523 288.807 207.36C288.753 207.197 288.673 207.055 288.567 206.935C288.46 206.815 288.33 206.722 288.177 206.655C288.023 206.588 287.847 206.555 287.647 206.555C287.237 206.555 286.913 206.673 286.677 206.91C286.443 207.147 286.295 207.475 286.232 207.895H288.892ZM289.697 210.275C289.577 210.415 289.438 210.537 289.282 210.64C289.125 210.74 288.958 210.822 288.782 210.885C288.605 210.948 288.422 210.995 288.232 211.025C288.045 211.055 287.86 211.07 287.677 211.07C287.327 211.07 287.002 211.012 286.702 210.895C286.405 210.775 286.147 210.602 285.927 210.375C285.71 210.145 285.54 209.862 285.417 209.525C285.297 209.185 285.237 208.795 285.237 208.355C285.237 208.002 285.292 207.673 285.402 207.37C285.512 207.063 285.668 206.797 285.872 206.57C286.078 206.343 286.33 206.165 286.627 206.035C286.923 205.905 287.257 205.84 287.627 205.84C287.937 205.84 288.222 205.892 288.482 205.995C288.745 206.095 288.972 206.242 289.162 206.435C289.352 206.628 289.5 206.867 289.607 207.15C289.717 207.433 289.772 207.757 289.772 208.12C289.772 208.27 289.755 208.372 289.722 208.425C289.688 208.475 289.627 208.5 289.537 208.5H286.207C286.217 208.803 286.26 209.068 286.337 209.295C286.413 209.518 286.518 209.705 286.652 209.855C286.788 210.005 286.95 210.117 287.137 210.19C287.323 210.263 287.532 210.3 287.762 210.3C287.978 210.3 288.165 210.275 288.322 210.225C288.482 210.175 288.618 210.122 288.732 210.065C288.848 210.005 288.945 209.95 289.022 209.9C289.102 209.85 289.172 209.825 289.232 209.825C289.312 209.825 289.373 209.855 289.417 209.915L289.697 210.275Z" fill="#7F7F7F"/>
<path d="M327.72 74.92C327.72 75.1933 327.753 75.4333 327.82 75.64C327.887 75.85 327.98 76.025 328.1 76.165C328.223 76.305 328.368 76.41 328.535 76.48C328.705 76.55 328.892 76.585 329.095 76.585C329.508 76.585 329.82 76.4483 330.03 76.175C330.24 75.905 330.345 75.4983 330.345 74.955L330.345 73.95L327.72 73.95L327.72 74.92ZM324 78.27L324 77.32C324 77.13 324.075 76.9917 324.225 76.905L326.715 75.13C326.798 75.0733 326.857 75.0117 326.89 74.945C326.927 74.8783 326.945 74.7783 326.945 74.645L326.945 73.95L324 73.95L324 72.885L331.18 72.885L331.18 74.955C331.18 75.4183 331.132 75.8167 331.035 76.15C330.942 76.4867 330.807 76.7633 330.63 76.98C330.457 77.2 330.247 77.3617 330 77.465C329.753 77.5717 329.477 77.625 329.17 77.625C328.92 77.625 328.685 77.5867 328.465 77.51C328.245 77.4333 328.047 77.32 327.87 77.17C327.697 77.0233 327.547 76.8433 327.42 76.63C327.293 76.4167 327.197 76.175 327.13 75.905C327.05 76.0383 326.938 76.1533 326.795 76.25L324 78.27ZM326.255 81.6455C326.242 81.2488 326.21 80.9121 326.16 80.6355C326.113 80.3588 326.05 80.1338 325.97 79.9605C325.89 79.7871 325.795 79.6621 325.685 79.5855C325.578 79.5088 325.458 79.4705 325.325 79.4705C325.198 79.4705 325.088 79.4905 324.995 79.5305C324.905 79.5738 324.83 79.6305 324.77 79.7005C324.713 79.7738 324.672 79.8588 324.645 79.9555C324.618 80.0521 324.605 80.1571 324.605 80.2705C324.605 80.4205 324.62 80.5571 324.65 80.6805C324.68 80.8071 324.722 80.9255 324.775 81.0355C324.832 81.1455 324.9 81.2505 324.98 81.3505C325.06 81.4505 325.152 81.5488 325.255 81.6455L326.255 81.6455ZM328.37 78.7855C328.64 79.0688 328.842 79.3755 328.975 79.7055C329.108 80.0388 329.175 80.4038 329.175 80.8005C329.175 81.0905 329.127 81.3471 329.03 81.5705C328.937 81.7938 328.805 81.9821 328.635 82.1355C328.465 82.2888 328.262 82.4038 328.025 82.4805C327.788 82.5605 327.527 82.6005 327.24 82.6005L324 82.6005L324 82.1655C324 82.0688 324.015 81.9955 324.045 81.9455C324.078 81.8955 324.138 81.8555 324.225 81.8255L324.67 81.7205C324.55 81.5905 324.443 81.4621 324.35 81.3355C324.26 81.2088 324.182 81.0755 324.115 80.9355C324.052 80.7988 324.003 80.6521 323.97 80.4955C323.937 80.3388 323.92 80.1655 323.92 79.9755C323.92 79.7755 323.947 79.5871 324 79.4105C324.057 79.2371 324.142 79.0855 324.255 78.9555C324.368 78.8255 324.51 78.7221 324.68 78.6455C324.85 78.5721 325.048 78.5355 325.275 78.5355C325.475 78.5355 325.667 78.5888 325.85 78.6955C326.037 78.8055 326.203 78.9821 326.35 79.2255C326.497 79.4721 326.617 79.7921 326.71 80.1855C326.803 80.5821 326.857 81.0688 326.87 81.6455L327.24 81.6455C327.623 81.6455 327.91 81.5638 328.1 81.4005C328.29 81.2371 328.385 80.9971 328.385 80.6805C328.385 80.4671 328.358 80.2871 328.305 80.1405C328.252 79.9971 328.192 79.8721 328.125 79.7655C328.062 79.6621 328.003 79.5705 327.95 79.4905C327.897 79.4138 327.87 79.3338 327.87 79.2505C327.87 79.1838 327.888 79.1255 327.925 79.0755C327.962 79.0288 328.005 78.9905 328.055 78.9605L328.37 78.7855Z" fill="#7F7F7F"/>
<path d="M330.5 250.43C330.1 250.43 329.74 250.38 329.42 250.28C329.1 250.18 328.828 250.033 328.605 249.84C328.385 249.65 328.215 249.412 328.095 249.125C327.978 248.842 327.92 248.515 327.92 248.145C327.92 247.812 327.967 247.468 328.06 247.115L328.69 247.175C328.75 247.182 328.798 247.203 328.835 247.24C328.875 247.28 328.895 247.338 328.895 247.415C328.895 247.472 328.88 247.548 328.85 247.645C328.823 247.745 328.81 247.875 328.81 248.035C328.81 248.248 328.842 248.437 328.905 248.6C328.968 248.767 329.067 248.907 329.2 249.02C329.337 249.133 329.51 249.218 329.72 249.275C329.93 249.335 330.182 249.365 330.475 249.365L335.18 249.365L335.18 250.43L330.5 250.43ZM333.08 256.021L328 256.021L328 255.436C328 255.303 328.065 255.216 328.195 255.176L328.705 255.106C328.588 254.996 328.482 254.881 328.385 254.761C328.288 254.641 328.205 254.513 328.135 254.376C328.068 254.24 328.017 254.095 327.98 253.941C327.94 253.788 327.92 253.623 327.92 253.446C327.92 253.166 327.967 252.92 328.06 252.706C328.153 252.496 328.283 252.32 328.45 252.176C328.62 252.033 328.823 251.925 329.06 251.851C329.297 251.778 329.558 251.741 329.845 251.741L333.08 251.741L333.08 252.721L329.845 252.721C329.482 252.721 329.198 252.805 328.995 252.971C328.795 253.138 328.695 253.393 328.695 253.736C328.695 253.986 328.753 254.22 328.87 254.436C328.99 254.653 329.153 254.856 329.36 255.046L333.08 255.046L333.08 256.021ZM334.01 263.827C333.953 263.793 333.912 263.758 333.885 263.722C333.858 263.685 333.845 263.638 333.845 263.582C333.845 263.522 333.872 263.453 333.925 263.377C333.982 263.3 334.043 263.203 334.11 263.087C334.18 262.973 334.242 262.837 334.295 262.677C334.352 262.517 334.38 262.325 334.38 262.102C334.38 261.892 334.352 261.707 334.295 261.547C334.242 261.39 334.167 261.258 334.07 261.152C333.977 261.045 333.865 260.963 333.735 260.907C333.608 260.853 333.47 260.827 333.32 260.827C333.127 260.827 332.967 260.875 332.84 260.972C332.713 261.072 332.605 261.202 332.515 261.362C332.425 261.522 332.347 261.703 332.28 261.907C332.213 262.11 332.143 262.318 332.07 262.532C332 262.745 331.918 262.953 331.825 263.157C331.732 263.36 331.613 263.542 331.47 263.702C331.33 263.862 331.157 263.99 330.95 264.087C330.747 264.187 330.497 264.237 330.2 264.237C329.883 264.237 329.587 264.182 329.31 264.072C329.033 263.965 328.792 263.808 328.585 263.602C328.378 263.395 328.215 263.14 328.095 262.837C327.978 262.537 327.92 262.195 327.92 261.812C327.92 261.582 327.943 261.358 327.99 261.142C328.033 260.925 328.095 260.72 328.175 260.527C328.258 260.333 328.357 260.152 328.47 259.982C328.587 259.815 328.717 259.665 328.86 259.532L329.37 259.837C329.41 259.867 329.443 259.902 329.47 259.942C329.497 259.985 329.51 260.033 329.51 260.087C329.51 260.157 329.473 260.237 329.4 260.327C329.327 260.42 329.245 260.533 329.155 260.667C329.068 260.803 328.988 260.965 328.915 261.152C328.842 261.342 328.805 261.572 328.805 261.842C328.805 262.062 328.833 262.258 328.89 262.432C328.95 262.605 329.033 262.75 329.14 262.867C329.25 262.987 329.382 263.078 329.535 263.142C329.688 263.205 329.858 263.237 330.045 263.237C330.255 263.237 330.427 263.188 330.56 263.092C330.693 262.995 330.805 262.867 330.895 262.707C330.985 262.547 331.062 262.365 331.125 262.162C331.188 261.958 331.253 261.75 331.32 261.537C331.39 261.323 331.47 261.115 331.56 260.912C331.65 260.708 331.767 260.527 331.91 260.367C332.057 260.207 332.238 260.078 332.455 259.982C332.675 259.885 332.945 259.837 333.265 259.837C333.522 259.837 333.77 259.887 334.01 259.987C334.25 260.087 334.462 260.232 334.645 260.422C334.832 260.615 334.98 260.852 335.09 261.132C335.203 261.412 335.26 261.732 335.26 262.092C335.26 262.495 335.195 262.865 335.065 263.202C334.938 263.542 334.755 263.837 334.515 264.087L334.01 263.827ZM330.255 268.013C330.242 267.616 330.21 267.279 330.16 267.003C330.113 266.726 330.05 266.501 329.97 266.328C329.89 266.154 329.795 266.029 329.685 265.953C329.578 265.876 329.458 265.838 329.325 265.838C329.198 265.838 329.088 265.858 328.995 265.898C328.905 265.941 328.83 265.998 328.77 266.068C328.713 266.141 328.672 266.226 328.645 266.323C328.618 266.419 328.605 266.524 328.605 266.638C328.605 266.788 328.62 266.924 328.65 267.048C328.68 267.174 328.722 267.293 328.775 267.403C328.832 267.513 328.9 267.618 328.98 267.718C329.06 267.818 329.152 267.916 329.255 268.013L330.255 268.013ZM332.37 265.153C332.64 265.436 332.842 265.743 332.975 266.073C333.108 266.406 333.175 266.771 333.175 267.168C333.175 267.458 333.127 267.714 333.03 267.938C332.937 268.161 332.805 268.349 332.635 268.503C332.465 268.656 332.262 268.771 332.025 268.848C331.788 268.928 331.527 268.968 331.24 268.968L328 268.968L328 268.533C328 268.436 328.015 268.363 328.045 268.313C328.078 268.263 328.138 268.223 328.225 268.193L328.67 268.088C328.55 267.958 328.443 267.829 328.35 267.703C328.26 267.576 328.182 267.443 328.115 267.303C328.052 267.166 328.003 267.019 327.97 266.863C327.937 266.706 327.92 266.533 327.92 266.343C327.92 266.143 327.947 265.954 328 265.778C328.057 265.604 328.142 265.453 328.255 265.323C328.368 265.193 328.51 265.089 328.68 265.013C328.85 264.939 329.048 264.903 329.275 264.903C329.475 264.903 329.667 264.956 329.85 265.063C330.037 265.173 330.203 265.349 330.35 265.593C330.497 265.839 330.617 266.159 330.71 266.553C330.803 266.949 330.857 267.436 330.87 268.013L331.24 268.013C331.623 268.013 331.91 267.931 332.1 267.768C332.29 267.604 332.385 267.364 332.385 267.048C332.385 266.834 332.358 266.654 332.305 266.508C332.252 266.364 332.192 266.239 332.125 266.133C332.062 266.029 332.003 265.938 331.95 265.858C331.897 265.781 331.87 265.701 331.87 265.618C331.87 265.551 331.888 265.493 331.925 265.443C331.962 265.396 332.005 265.358 332.055 265.328L332.37 265.153Z" fill="#7F7F7F"/>
<path d="M84.11 323.255V324H80.23V323.255H81.75V318.55C81.75 318.4 81.755 318.245 81.765 318.085L80.545 319.12C80.4983 319.157 80.4517 319.18 80.405 319.19C80.3583 319.2 80.3133 319.202 80.27 319.195C80.23 319.188 80.1933 319.175 80.16 319.155C80.13 319.132 80.105 319.108 80.085 319.085L79.78 318.66L81.93 316.805H82.725V323.255H84.11ZM89.9108 323.255V324H86.0308V323.255H87.5508V318.55C87.5508 318.4 87.5558 318.245 87.5658 318.085L86.3458 319.12C86.2991 319.157 86.2524 319.18 86.2058 319.19C86.1591 319.2 86.1141 319.202 86.0708 319.195C86.0308 319.188 85.9941 319.175 85.9608 319.155C85.9308 319.132 85.9058 319.108 85.8858 319.085L85.5808 318.66L87.7308 316.805H88.5258V323.255H89.9108Z" fill="#E3418B"/>
<path d="M175.11 303.255V304H171.23V303.255H172.75V298.55C172.75 298.4 172.755 298.245 172.765 298.085L171.545 299.12C171.498 299.157 171.452 299.18 171.405 299.19C171.358 299.2 171.313 299.202 171.27 299.195C171.23 299.188 171.193 299.175 171.16 299.155C171.13 299.132 171.105 299.108 171.085 299.085L170.78 298.66L172.93 296.805H173.725V303.255H175.11ZM180.731 303.075C180.837 303.075 180.921 303.107 180.981 303.17C181.041 303.23 181.071 303.31 181.071 303.41V304H176.251V303.665C176.251 303.598 176.264 303.528 176.291 303.455C176.317 303.378 176.362 303.31 176.426 303.25L178.696 300.975C178.886 300.785 179.057 300.602 179.211 300.425C179.364 300.248 179.494 300.073 179.601 299.9C179.707 299.723 179.789 299.543 179.846 299.36C179.906 299.177 179.936 298.983 179.936 298.78C179.936 298.58 179.904 298.405 179.841 298.255C179.777 298.102 179.691 297.975 179.581 297.875C179.471 297.775 179.341 297.7 179.191 297.65C179.041 297.6 178.879 297.575 178.706 297.575C178.532 297.575 178.372 297.6 178.226 297.65C178.082 297.7 177.954 297.77 177.841 297.86C177.727 297.95 177.632 298.057 177.556 298.18C177.479 298.303 177.424 298.437 177.391 298.58C177.344 298.707 177.284 298.792 177.211 298.835C177.141 298.878 177.037 298.888 176.901 298.865L176.391 298.775C176.437 298.442 176.529 298.148 176.666 297.895C176.802 297.642 176.974 297.43 177.181 297.26C177.387 297.087 177.624 296.957 177.891 296.87C178.161 296.783 178.451 296.74 178.761 296.74C179.074 296.74 179.362 296.787 179.626 296.88C179.892 296.97 180.122 297.102 180.316 297.275C180.509 297.448 180.661 297.66 180.771 297.91C180.881 298.157 180.936 298.437 180.936 298.75C180.936 299.017 180.896 299.265 180.816 299.495C180.739 299.722 180.632 299.938 180.496 300.145C180.362 300.352 180.206 300.553 180.026 300.75C179.849 300.943 179.661 301.14 179.461 301.34L177.641 303.2C177.781 303.163 177.921 303.133 178.061 303.11C178.204 303.087 178.339 303.075 178.466 303.075H180.731Z" fill="#E3418B"/>
</g>
<rect x="0.5" y="0.5" width="351" height="351" rx="15.5" stroke="#494949"/>
<defs>
<clipPath id="clip0_133_293">
<rect x="1" y="1" width="350" height="350" rx="15" fill="white"/>
</clipPath>
</defs>
</svg>
