<svg width="13" height="16" viewBox="0 0 13 16" fill="none" xmlns="http://www.w3.org/2000/svg">
<path d="M3.90193 8.53868H3.53476C2.34777 8.53868 1.75428 8.53868 1.5013 8.14732C1.24832 7.75604 1.48937 7.21084 1.97144 6.12047L3.42076 2.84239C3.85907 1.851 4.07823 1.35531 4.50339 1.07756C4.92855 0.799805 5.46813 0.799805 6.54741 0.799805H8.21893C9.52997 0.799805 10.1855 0.799805 10.4327 1.22808C10.68 1.65636 10.3548 2.22851 9.70429 3.37279L8.84677 4.88131C8.52341 5.45016 8.36173 5.7346 8.36397 5.96742C8.36693 6.27001 8.52781 6.54876 8.78773 6.7014C8.98773 6.81892 9.31357 6.81892 9.96533 6.81892C10.7893 6.81892 11.2013 6.81892 11.4158 6.96156C11.6945 7.14684 11.8405 7.47836 11.7893 7.81036C11.75 8.06588 11.4729 8.37228 10.9186 8.98516L6.49053 13.8816C5.62077 14.8434 5.18589 15.3243 4.89387 15.1721C4.60184 15.0199 4.74208 14.3856 5.02253 13.1168L5.57197 10.6315C5.78549 9.66541 5.89229 9.18236 5.63549 8.86052C5.37869 8.53868 4.88643 8.53868 3.90193 8.53868Z" stroke="white" stroke-width="1.2" stroke-linejoin="round"/>
</svg>
